<svg id="Layer_1" data-name="Layer 1" xmlns="http://www.w3.org/2000/svg" viewBox="0 0 512 512">
    <title>pawprint4-glyph</title>
    <path
        d="M59,325.39c5.93,21.09-2,41.76-17.77,46.22S7.91,362.57,2,341.47s2-41.78,17.77-46.22S53.08,304.28,59,325.39Z"
        fill="#5b5b5f" />
    <path
        d="M98.72,257c5.83,20.66-1.74,40.84-16.9,45.15s-32.19-9-38-29.65,1.77-40.83,16.93-45.13S92.89,236.42,98.72,257Z"
        fill="#5b5b5f" />
    <path
        d="M168.85,245.89c5.93,21.09-1.37,41.62-16.35,45.84s-31.9-9.47-37.89-30.53S116,219.61,131,215.36,162.89,224.81,168.85,245.89Z"
        fill="#5b5b5f" />
    <path
        d="M236.9,291.43c5.62,20-2.56,39.76-18.27,44.19s-33-8.16-38.68-28.11,2.53-39.76,18.27-44.2S231.26,271.46,236.9,291.43Z"
        fill="#5b5b5f" />
    <path
        d="M97.58,447.24s-49,15-46.33-48A179.93,179.93,0,0,1,76.65,357.8s13.58-21.75,16-29.58c0,0,16.19-41.5,53.79-11.57,0,0,31.56,30.39,43.66,33.64,0,0,41.05,25,20.67,62.26,0,0-20,22.66-38,13C172.78,425.54,128.33,405.36,97.58,447.24Z"
        fill="#5b5b5f" />
    <path
        d="M336.91,150.43c-4.11,21.52-20.49,36.48-36.6,33.38s-25.73-23-21.62-44.53,20.49-36.45,36.57-33.37S341,128.92,336.91,150.43Z"
        fill="#5b5b5f" />
    <path
        d="M403,107.1c-4,21.08-19.85,35.75-35.33,32.79S342.9,117.44,347,96.37s19.83-35.75,35.3-32.8S407,86,403,107.1Z"
        fill="#5b5b5f" />
    <path
        d="M470.7,128.54c-4.14,21.5-19.85,36.57-35.15,33.64s-24.31-22.74-20.17-44.24,19.83-36.61,35.12-33.68S474.81,107,470.7,128.54Z"
        fill="#5b5b5f" />
    <path
        d="M511.15,199.67c-3.9,20.41-20,34.42-36.12,31.36S449.13,209,453,188.56s20.09-34.39,36.15-31.32S515,179.32,511.15,199.67Z"
        fill="#5b5b5f" />
    <path
        d="M316.82,276.66s-50.47-8.48-19.93-63.65a179.79,179.79,0,0,1,41.26-25.71S360,173.94,365.73,168c0,0,33-29.85,53.29,13.74,0,0,14.61,41.32,24,49.65,0,0,25.5,40.75-9.39,64.93,0,0-28.05,11.3-39.84-5.4C393.79,290.92,363,253,316.82,276.66Z"
        fill="#5b5b5f" />
</svg>